HIERARCHY
ROOT Hips
{
 OFFSET 0.000000 0.000000 0.000000
 CHANNELS 6 Xposition Yposition Zposition Yrotation Xrotation Zrotation
 JOINT Chest
 {
  OFFSET 0.000000 9.585900 0.002600
  CHANNELS 3 Yrotation Xrotation Zrotation
  JOINT Chest2
  {
   OFFSET 0.000000 9.601200 -0.005300
   CHANNELS 3 Yrotation Xrotation Zrotation
   JOINT Chest3
   {
    OFFSET 0.000000 9.561800 0.000000
    CHANNELS 3 Yrotation Xrotation Zrotation
    JOINT Chest4
    {
     OFFSET 0.000000 9.552100 0.000000
     CHANNELS 3 Yrotation Xrotation Zrotation
     JOINT Neck
     {
      OFFSET 0.000000 14.453000 0.000000
      CHANNELS 3 Yrotation Xrotation Zrotation
      JOINT Head
      {
       OFFSET 0.000000 8.936500 -0.011300
       CHANNELS 3 Yrotation Xrotation Zrotation
       End Site
       {
        OFFSET 0.000000 17.073600 -0.006000
       }
      }
     }
     JOINT RightCollar
     {
      OFFSET -2.921100 9.558500 0.000000
      CHANNELS 3 Yrotation Xrotation Zrotation
      JOINT RightShoulder
      {
       OFFSET -13.519700 0.000000 0.000000
       CHANNELS 3 Yrotation Xrotation Zrotation
       JOINT RightElbow
       {
        OFFSET 0.000000 -29.696600 0.000000
        CHANNELS 3 Yrotation Xrotation Zrotation
        JOINT RightWrist
        {
         OFFSET 0.000000 -24.004700 0.000000
         CHANNELS 3 Yrotation Xrotation Zrotation
         End Site
         {
          OFFSET 0.000000 -17.728500 0.000000
         }
        }
       }
      }
     }
     JOINT LeftCollar
     {
      OFFSET 2.921100 9.558500 0.000000
      CHANNELS 3 Yrotation Xrotation Zrotation
      JOINT LeftShoulder
      {
       OFFSET 13.519700 0.000000 0.000000
       CHANNELS 3 Yrotation Xrotation Zrotation
       JOINT LeftElbow
       {
        OFFSET 0.000000 -29.696600 0.000000
        CHANNELS 3 Yrotation Xrotation Zrotation
        JOINT LeftWrist
        {
         OFFSET 0.000000 -24.004700 0.000000
         CHANNELS 3 Yrotation Xrotation Zrotation
         End Site
         {
          OFFSET 0.000000 -17.728500 0.000000
         }
        }
       }
      }
     }
    }
   }
  }
 }
 JOINT RightHip
 {
  OFFSET -7.771700 -0.012900 -0.001300
  CHANNELS 3 Yrotation Xrotation Zrotation
  JOINT RightKnee
  {
   OFFSET 0.000000 -40.869800 0.001200
   CHANNELS 3 Yrotation Xrotation Zrotation
   JOINT RightAnkle
   {
    OFFSET 0.000000 -39.717900 0.002100
    CHANNELS 3 Yrotation Xrotation Zrotation
    JOINT RightToe
    {
     OFFSET 0.000000 -4.965400 11.033500
     CHANNELS 3 Yrotation Xrotation Zrotation
     End Site
     {
      OFFSET 0.000000 -1.423100 5.872300
     }
    }
   }
  }
 }
 JOINT LeftHip
 {
  OFFSET 7.771700 -0.012900 -0.001300
  CHANNELS 3 Yrotation Xrotation Zrotation
  JOINT LeftKnee
  {
   OFFSET 0.000000 -40.869800 0.001200
   CHANNELS 3 Yrotation Xrotation Zrotation
   JOINT LeftAnkle
   {
    OFFSET 0.000000 -39.717900 0.002100
    CHANNELS 3 Yrotation Xrotation Zrotation
    JOINT LeftToe
    {
     OFFSET 0.000000 -4.965400 11.033500
     CHANNELS 3 Yrotation Xrotation Zrotation
     End Site
     {
      OFFSET 0.000000 -1.423100 5.872300
     }
    }
   }
  }
 }
}
MOTION
Frames: 11
Frame Time: 0.008333
0.000000 85.388000 0.000000 0.000000 -5.767877 0.000000 0.000000 11.653817 0.000000 0.000000 -5.885947 0.000000 0.000000 -0.000000 0.000000 0.000000 -0.000000 0.000000 0.000000 12.528835 0.000000 0.000000 0.711642 0.000000 0.000000 -0.000000 0.000000 0.000000 0.000000 -90.000000 0.000000 -2.309062 0.000000 0.000000 2.309062 0.000000 0.000000 -0.000000 0.000000 0.000000 -0.000000 90.000000 0.000000 -2.309062 0.000000 0.000000 2.309062 0.000000 0.000000 8.520406 0.000000 0.000000 1.905762 0.000000 -0.000000 -4.658285 0.000000 0.000000 -0.000000 0.000000 0.000000 8.520406 0.000000 0.000000 1.905762 0.000000 -0.000000 -4.658285 0.000000 0.000000 -0.000000 0.000000
-246.753497 60.859733 -73.872622 151.390776 -38.332988 3.706997 2.889635 19.207766 4.101094 0.260516 2.379517 0.464094 0.454917 3.877359 0.782249 2.302390 16.647995 3.590880 0.055509 21.922081 3.721365 -0.819100 -2.255946 4.022293 8.253463 5.923868 -3.557999 29.774007 -26.724774 -21.761435 36.455203 -41.268310 -26.382343 15.309505 14.607019 -19.841190 -13.795859 0.715148 -6.554034 -13.758406 -22.819741 8.922656 -66.717012 -23.603109 50.483853 -15.051403 8.003992 5.605637 4.997410 -30.496962 11.410078 -24.757243 62.503625 -24.850962 -1.860291 1.030706 -0.392545 -0.208336 -0.261400 -0.033896 10.957011 -30.118291 6.907064 26.894346 58.868816 26.619561 -15.672480 -7.355001 -0.204306 0.344443 0.000977 0.085348
-246.744371 60.853613 -73.874958 151.390118 -38.325940 3.706056 2.888235 19.205814 4.099194 0.254896 2.400131 0.457948 0.445727 3.884740 0.774852 2.311374 16.643398 3.588659 0.079459 21.910981 3.710778 -0.781116 -2.250469 4.002373 8.232011 5.947188 -3.582913 29.815981 -26.744090 -21.639319 36.330708 -41.271224 -26.469027 15.350000 14.591382 -19.781631 -13.726366 0.785504 -6.572577 -13.410161 -22.794882 8.578981 -66.919285 -23.988738 50.620509 -15.029236 7.639884 5.472963 5.004818 -30.512801 11.431000 -24.785289 62.513261 -24.907792 -1.856369 1.015136 -0.370835 -0.225736 -0.252288 -0.043899 10.954486 -30.138203 6.922551 26.930947 58.878680 26.648467 -15.682470 -7.312199 -0.180386 0.359967 -0.007106 0.080764
-246.733109 60.843849 -73.873653 151.405713 -38.294668 3.680265 2.876339 19.199637 4.104700 0.260115 2.388123 0.461720 0.444585 3.883891 0.773493 2.310375 16.669404 3.579926 0.102032 21.886037 3.691120 -0.773433 -2.262533 4.016381 8.197693 5.960434 -3.618204 29.880068 -26.768828 -21.510282 36.116962 -41.274554 -26.503855 15.396412 14.584913 -19.715840 -13.652853 0.834305 -6.579432 -13.063275 -22.788251 8.261452 -67.092689 -24.408087 50.675734 -15.003616 7.279122 5.351760 4.994579 -30.557372 11.466292 -24.831625 62.523360 -24.974546 -1.815156 1.029299 -0.337627 -0.275431 -0.274424 -0.068671 10.979782 -30.209440 6.960270 26.891078 58.922175 26.630915 -15.787449 -7.267855 -0.185806 0.476679 -0.015815 0.125728
-246.721381 60.834706 -73.874360 151.412468 -38.274337 3.666984 2.872244 19.207542 4.106499 0.263505 2.406675 0.460359 0.442124 3.868773 0.772713 2.317155 16.688534 3.576418 0.123410 21.845077 3.660716 -0.715133 -2.325177 3.932027 8.152462 5.962433 -3.666717 29.958098 -26.801010 -21.363922 35.795032 -41.285113 -26.473851 15.452288 14.589679 -19.640794 -13.605406 0.831327 -6.570612 -12.691864 -22.768408 7.964323 -67.235520 -24.854619 50.663002 -14.967950 6.929326 5.255209 4.995631 -30.592322 11.494596 -24.873906 62.536528 -25.034342 -1.822673 1.014260 -0.319420 -0.284264 -0.267364 -0.080634 11.039364 -30.259069 6.968931 26.876046 58.944228 26.656750 -15.862131 -7.236082 -0.170194 0.505277 -0.035475 0.127280
-246.708559 60.825604 -73.875109 151.425130 -38.257772 3.644125 2.879451 19.271228 4.117111 0.264039 2.380314 0.463298 0.436196 3.859280 0.769609 2.325364 16.685321 3.577544 0.145916 21.802993 3.616285 -0.672640 -2.405971 3.860833 8.126022 5.945752 -3.695239 30.018315 -26.802003 -21.203586 35.349769 -41.310262 -26.366087 15.519548 14.604978 -19.556171 -13.591530 0.804872 -6.558827 -12.304891 -22.734385 7.703821 -67.349520 -25.323485 50.600826 -14.922710 6.597778 5.194595 4.985493 -30.621888 11.521785 -24.893409 62.555731 -25.063225 -1.866907 0.960698 -0.328220 -0.261207 -0.225146 -0.073944 11.102720 -30.302881 6.972644 26.869743 58.955812 26.698106 -15.864024 -7.212259 -0.137621 0.405185 -0.047153 0.098055
-246.700258 60.816619 -73.877557 151.431105 -38.239544 3.649671 2.877962 19.274666 4.107332 0.270259 2.407431 0.460529 0.442540 3.901765 0.768922 2.313786 16.608341 3.578190 0.173168 21.773168 3.554486 -0.636913 -2.504298 3.800845 8.099727 5.956955 -3.726829 30.063993 -26.813809 -21.015670 34.759801 -41.362813 -26.152376 15.592936 14.639518 -19.461329 -13.531227 0.835292 -6.564171 -12.009373 -22.726428 7.515828 -67.433276 -25.806548 50.505439 -14.867643 6.292867 5.172758 4.995098 -30.651299 11.515074 -24.920067 62.573241 -25.090785 -1.878836 0.939082 -0.335526 -0.259252 -0.213637 -0.072304 11.140078 -30.329395 6.951172 26.954364 58.940313 26.781532 -15.861268 -7.197580 -0.104680 0.399524 -0.026618 0.095953
-246.695338 60.808817 -73.882064 151.452206 -38.229029 3.661719 2.859714 19.287041 4.081086 0.277329 2.436960 0.454873 0.444770 3.907910 0.767312 2.333015 16.671578 3.562992 0.198246 21.611313 3.509139 -0.592507 -2.635866 3.731842 7.999075 5.914314 -3.848586 30.096417 -26.950156 -20.732896 34.019135 -41.454987 -25.799702 15.660678 14.707360 -19.363047 -13.431061 0.796447 -6.512180 -11.822752 -22.740719 7.393557 -67.486388 -26.294281 50.391545 -14.802574 6.022301 5.187389 5.003871 -30.675433 11.481922 -25.002897 62.598341 -25.165715 -1.852419 0.900227 -0.327269 -0.263849 -0.199097 -0.081210 11.174988 -30.345201 6.911229 26.927847 58.947322 26.781018 -15.836668 -7.186375 -0.107088 0.382875 0.012039 0.122316
-246.693522 60.799949 -73.885099 151.478212 -38.203471 3.672453 2.863396 19.361569 4.047675 0.260418 2.362213 0.464489 0.457730 3.959775 0.758639 2.342286 16.688822 3.549382 0.235512 21.448520 3.452560 -0.536698 -2.808617 3.653313 7.927965 5.878233 -3.939839 30.033785 -27.091227 -20.408367 33.161636 -41.581566 -25.299577 15.717875 14.802638 -19.275707 -13.400921 0.738972 -6.458744 -11.603505 -22.717819 7.317109 -67.515601 -26.774434 50.275093 -14.733049 5.794071 5.231133 5.007723 -30.709373 11.443358 -25.044471 62.616337 -25.196445 -1.850499 0.866251 -0.332080 -0.253635 -0.180073 -0.081452 11.246928 -30.378876 6.851807 26.870212 58.956188 26.766234 -15.835718 -7.190263 -0.094764 0.346285 0.043504 0.130053
-246.689508 60.792022 -73.887014 151.481246 -38.181903 3.670732 2.883299 19.397472 4.046383 0.249871 2.332127 0.466638 0.461306 3.965289 0.757905 2.356522 16.747106 3.531611 0.284382 21.261694 3.385284 -0.469071 -3.029306 3.566456 7.861322 5.838079 -4.024073 29.862446 -27.259593 -20.017509 32.228365 -41.733999 -24.663293 15.763693 14.914853 -19.206465 -13.377459 0.682060 -6.411674 -11.432052 -22.687100 7.300609 -67.512040 -27.236359 50.160650 -14.668562 5.605456 5.297868 5.015038 -30.741018 11.434051 -25.068421 62.631417 -25.209522 -1.851780 0.846453 -0.332841 -0.247742 -0.168450 -0.085577 11.402227 -30.415081 6.799293 26.741767 58.961431 26.736042 -15.831309 -7.207448 -0.084470 0.314752 0.070368 0.138766
-246.700445 60.779446 -73.887212 151.477957 -38.102811 3.734126 2.891370 19.386628 3.977177 0.252583 2.329501 0.466983 0.453200 3.937843 0.760639 2.365542 16.817673 3.511292 0.349345 21.031121 3.317187 -0.384108 -3.299976 3.474521 7.785272 5.788472 -4.120027 29.595691 -27.470415 -19.551455 31.232522 -41.911113 -23.910167 15.791685 15.042545 -19.153791 -13.358383 0.610296 -6.362014 -11.313592 -22.652523 7.337676 -67.450902 -27.679210 50.037684 -14.616113 5.455741 5.389034 5.105947 -30.865570 11.308277 -25.119500 62.690298 -25.208414 -1.853497 0.860671 -0.335583 -0.248448 -0.193475 -0.091560 11.532195 -30.485691 6.697360 26.767929 58.947477 26.756239 -15.876250 -7.226481 -0.042676 0.312756 0.108543 0.144028
